# This file uses centimeters as units for non-parametric coordinates.

mtllib top_hanoi.mtl
g default
v -0.877289 1.583658 0.877289
v 0.877289 1.583658 0.877289
v -0.877289 1.999559 0.877289
v 0.877289 1.999559 0.877289
v -0.877289 1.999559 -0.877289
v 0.877289 1.999559 -0.877289
v -0.877289 1.583658 -0.877289
v 0.877289 1.583658 -0.877289
v -0.218361 1.999559 0.217182
v 0.218361 1.999559 0.217182
v 0.218361 1.999559 -0.217182
v -0.218361 1.999559 -0.217182
v -0.218361 1.659481 -0.217182
v 0.218361 1.659481 -0.217182
v 0.218361 1.659481 0.217182
v -0.218361 1.659481 0.217182
vt 0.375000 0.000000
vt 0.625000 0.000000
vt 0.375000 0.250000
vt 0.625000 0.250000
vt 0.375000 0.500000
vt 0.625000 0.500000
vt 0.375000 0.750000
vt 0.625000 0.750000
vt 0.375000 1.000000
vt 0.625000 1.000000
vt 0.875000 0.000000
vt 0.875000 0.250000
vt 0.125000 0.000000
vt 0.125000 0.250000
vt 0.375000 0.250000
vt 0.625000 0.250000
vt 0.625000 0.500000
vt 0.375000 0.500000
vt 0.375000 0.750000
vt 0.625000 0.750000
vt 0.625000 1.000000
vt 0.375000 1.000000
vt 0.000000 0.000000
vt 1.000000 0.000000
vt 1.000000 1.000000
vt 0.000000 1.000000
vt 0.000000 0.000000
vt 1.000000 0.000000
vt 1.000000 1.000000
vt 0.000000 1.000000
vt 0.000000 0.000000
vt 1.000000 0.000000
vt 1.000000 1.000000
vt 0.000000 1.000000
vt 0.000000 0.000000
vt 1.000000 0.000000
vt 1.000000 1.000000
vt 0.000000 1.000000
vn 0.000000 0.000000 1.000000
vn 0.000000 0.000000 1.000000
vn 0.000000 0.000000 1.000000
vn 0.000000 0.000000 1.000000
vn 0.000000 0.000000 -1.000000
vn 0.000000 0.000000 -1.000000
vn 0.000000 0.000000 -1.000000
vn 0.000000 0.000000 -1.000000
vn 1.000000 0.000000 0.000000
vn 1.000000 0.000000 0.000000
vn 1.000000 0.000000 0.000000
vn 1.000000 0.000000 0.000000
vn -1.000000 0.000000 0.000000
vn -1.000000 0.000000 0.000000
vn -1.000000 0.000000 0.000000
vn -1.000000 0.000000 0.000000
vn 0.000000 1.000000 0.000000
vn 0.000000 1.000000 0.000000
vn 0.000000 1.000000 0.000000
vn 0.000000 1.000000 0.000000
vn 0.000000 1.000000 0.000000
vn 0.000000 1.000000 0.000000
vn 0.000000 1.000000 0.000000
vn 0.000000 1.000000 0.000000
vn 0.000000 1.000000 0.000000
vn 0.000000 1.000000 0.000000
vn 0.000000 1.000000 0.000000
vn 0.000000 1.000000 0.000000
vn 0.000000 1.000000 0.000000
vn 0.000000 1.000000 0.000000
vn 0.000000 1.000000 0.000000
vn 0.000000 1.000000 0.000000
vn 0.000000 -0.993468 0.114114
vn 0.000000 -0.993468 0.114114
vn 0.000000 -0.993468 0.114114
vn 0.000000 -0.993468 0.114114
vn -0.114316 -0.993444 0.000000
vn -0.114316 -0.993444 0.000000
vn -0.114316 -0.993444 0.000000
vn -0.114316 -0.993444 0.000000
vn 0.000000 -0.993468 -0.114114
vn 0.000000 -0.993468 -0.114114
vn 0.000000 -0.993468 -0.114114
vn 0.000000 -0.993468 -0.114114
vn 0.114316 -0.993444 0.000000
vn 0.114316 -0.993444 0.000000
vn 0.114316 -0.993444 0.000000
vn 0.114316 -0.993444 0.000000
vn 0.000000 0.000000 -1.000000
vn 0.000000 0.000000 -1.000000
vn 0.000000 0.000000 -1.000000
vn 0.000000 0.000000 -1.000000
vn -1.000000 0.000000 0.000000
vn -1.000000 0.000000 0.000000
vn -1.000000 0.000000 0.000000
vn -1.000000 0.000000 0.000000
vn 0.000000 0.000000 1.000000
vn 0.000000 0.000000 1.000000
vn 0.000000 0.000000 1.000000
vn 0.000000 0.000000 1.000000
vn 1.000000 0.000000 0.000000
vn 1.000000 0.000000 0.000000
vn 1.000000 0.000000 0.000000
vn 1.000000 0.000000 0.000000
s off
g pCube4
usemtl initialShadingGroup
f 1/1/1 2/2/2 4/4/3 3/3/4
f 5/5/5 6/6/6 8/8/7 7/7/8
f 2/2/9 8/11/10 6/12/11 4/4/12
f 7/13/13 1/1/14 3/3/15 5/14/16
f 3/3/17 4/4/18 10/16/19 9/15/20
f 4/4/21 6/6/22 11/17/23 10/16/24
f 6/6/25 5/5/26 12/18/27 11/17/28
f 5/5/29 3/3/30 9/15/31 12/18/32
f 7/7/33 8/8/34 14/20/35 13/19/36
f 8/8/37 2/10/38 15/21/39 14/20/40
f 2/10/41 1/9/42 16/22/43 15/21/44
f 1/9/45 7/7/46 13/19/47 16/22/48
f 9/23/49 10/24/50 15/25/51 16/26/52
f 10/27/53 11/28/54 14/29/55 15/30/56
f 11/31/57 12/32/58 13/33/59 14/34/60
f 12/35/61 9/36/62 16/37/63 13/38/64
